<svg width="256" height="256" viewBox="0 0 256 256" fill="none" xmlns="http://www.w3.org/2000/svg">
<g clip-path="url(#clip0_4036_15833)">
<rect x="65" y="194" width="191" height="62" rx="31" fill="#0FE9B5"/>
<rect x="66.5" y="195.5" width="188" height="59" rx="29.5" stroke="black" stroke-opacity="0.1" stroke-width="3"/>
<path d="M161.851 224.978C161.851 226.577 161.735 228.121 161.502 229.611C161.284 231.087 160.846 232.467 160.19 233.752C159.534 235.037 158.55 236.185 157.238 237.196C156.61 237.688 155.851 238.084 154.963 238.385C154.088 238.686 153.186 238.904 152.257 239.041C151.327 239.178 150.48 239.246 149.715 239.246C148.539 239.246 147.385 239.232 146.25 239.205C145.13 239.191 144.002 239.171 142.868 239.143C141.747 239.13 140.592 239.109 139.403 239.082L139.116 238.795V211.202L139.403 210.915C140.579 210.874 141.727 210.847 142.847 210.833C143.982 210.806 145.116 210.785 146.25 210.771C147.385 210.758 148.539 210.751 149.715 210.751C150.48 210.751 151.327 210.826 152.257 210.976C153.186 211.113 154.095 211.332 154.983 211.632C155.872 211.933 156.623 212.329 157.238 212.821C158.537 213.833 159.514 214.981 160.17 216.265C160.826 217.536 161.27 218.91 161.502 220.386C161.735 221.862 161.851 223.393 161.851 224.978ZM155.106 224.978C155.106 223.939 155.038 222.887 154.901 221.821C154.778 220.741 154.532 219.757 154.163 218.869C153.808 217.967 153.268 217.243 152.544 216.696C151.833 216.136 150.89 215.855 149.715 215.855C149.018 215.855 148.348 215.855 147.706 215.855C147.063 215.855 146.38 215.842 145.656 215.814V234.162C146.38 234.148 147.063 234.141 147.706 234.141C148.348 234.141 149.018 234.141 149.715 234.141C150.89 234.141 151.833 233.868 152.544 233.321C153.268 232.761 153.808 232.03 154.163 231.128C154.532 230.212 154.778 229.221 154.901 228.155C155.038 227.076 155.106 226.017 155.106 224.978Z" fill="black"/>
<path d="M183.559 228.77C183.559 230.957 183.197 232.864 182.472 234.49C181.748 236.116 180.682 237.38 179.274 238.282C177.867 239.171 176.138 239.615 174.088 239.615C172.011 239.615 170.268 239.164 168.86 238.262C167.453 237.36 166.394 236.096 165.683 234.469C164.972 232.843 164.617 230.943 164.617 228.77C164.617 226.57 164.972 224.664 165.683 223.051C166.407 221.425 167.473 220.167 168.881 219.279C170.289 218.377 172.024 217.926 174.088 217.926C176.165 217.926 177.901 218.377 179.295 219.279C180.703 220.181 181.762 221.445 182.472 223.071C183.197 224.684 183.559 226.584 183.559 228.77ZM171.197 228.77C171.197 229.891 171.259 230.909 171.382 231.825C171.519 232.741 171.792 233.472 172.202 234.018C172.612 234.551 173.241 234.818 174.088 234.818C174.922 234.818 175.543 234.551 175.953 234.018C176.377 233.472 176.65 232.741 176.773 231.825C176.91 230.909 176.978 229.891 176.978 228.77C176.978 227.636 176.91 226.611 176.773 225.695C176.65 224.78 176.377 224.055 175.953 223.522C175.543 222.976 174.922 222.702 174.088 222.702C173.241 222.702 172.612 222.976 172.202 223.522C171.792 224.055 171.519 224.78 171.382 225.695C171.259 226.611 171.197 227.636 171.197 228.77Z" fill="black"/>
<path d="M189.953 218.254C191.183 218.254 192.106 218.671 192.721 219.504C193.349 220.338 193.664 221.472 193.664 222.907V239C193.213 239.082 192.7 239.143 192.126 239.184C191.566 239.225 191.012 239.246 190.466 239.246C189.933 239.246 189.379 239.225 188.805 239.184C188.231 239.143 187.712 239.082 187.247 239V218.541L187.534 218.254H189.953ZM204.877 233.875C204.877 234.681 204.952 235.433 205.103 236.13C205.253 236.813 205.52 237.421 205.902 237.954C205.424 238.351 204.836 238.679 204.139 238.938C203.442 239.198 202.697 239.328 201.905 239.328C200.62 239.328 199.725 238.986 199.219 238.303C198.714 237.62 198.461 236.636 198.461 235.351V226.638C198.461 225.709 198.338 225.026 198.092 224.588C197.859 224.137 197.402 223.912 196.718 223.912C196.295 223.912 195.803 224.028 195.242 224.26C194.682 224.493 194.128 224.869 193.582 225.388C193.035 225.894 192.55 226.577 192.126 227.438V221.821C193.083 220.892 194.122 220.051 195.242 219.299C196.377 218.548 197.675 218.172 199.137 218.172C200.381 218.172 201.426 218.486 202.274 219.115C203.135 219.73 203.784 220.584 204.221 221.677C204.659 222.771 204.877 224.035 204.877 225.47V233.875Z" fill="black"/>
<path d="M212.56 230.841V226.433H220.288V225.962C220.288 225.333 220.199 224.759 220.022 224.24C219.844 223.707 219.557 223.283 219.161 222.969C218.764 222.641 218.245 222.477 217.603 222.477C216.605 222.477 215.901 222.887 215.491 223.707C215.095 224.527 214.897 225.791 214.897 227.499V229.426C214.897 230.369 214.979 231.244 215.143 232.05C215.307 232.843 215.655 233.485 216.188 233.977C216.721 234.469 217.534 234.715 218.628 234.715C219.557 234.715 220.466 234.599 221.354 234.367C222.256 234.121 223.117 233.827 223.937 233.485C224.416 233.964 224.798 234.558 225.085 235.269C225.372 235.98 225.564 236.649 225.659 237.278C224.621 238.03 223.377 238.604 221.928 239C220.493 239.41 219.045 239.615 217.582 239.615C215.792 239.615 214.302 239.314 213.113 238.713C211.938 238.112 211.009 237.305 210.325 236.294C209.642 235.283 209.157 234.141 208.87 232.87C208.596 231.586 208.46 230.267 208.46 228.914C208.46 226.85 208.767 224.992 209.382 223.338C210.011 221.671 211.002 220.352 212.355 219.381C213.708 218.411 215.471 217.926 217.644 217.926C219.434 217.926 220.965 218.309 222.236 219.074C223.52 219.839 224.498 220.878 225.167 222.19C225.851 223.502 226.192 224.978 226.192 226.618C226.192 227.534 226.151 228.299 226.069 228.914C225.987 229.515 225.844 230.158 225.639 230.841H212.56Z" fill="black"/>
<path fill-rule="evenodd" clip-rule="evenodd" d="M90 215V235H110V215H90ZM88 208C85.2386 208 83 210.239 83 213V237C83 239.761 85.2386 242 88 242H112C114.761 242 117 239.761 117 237V213C117 210.239 114.761 208 112 208H88Z" fill="black"/>
<path d="M100.569 231.804C100.569 231.435 100.528 231.271 100.364 231.271L99.4208 231.722C99.4208 231.517 99.2978 231.394 99.0928 231.312L98.7648 231.271C98.4778 231.271 98.3548 231.312 97.9448 231.558C97.8218 231.312 97.6578 231.025 97.5348 230.779C96.4688 228.729 95.3618 225.654 94.8698 224.301C94.6238 223.604 94.3778 222.169 94.0908 219.996C94.4188 220.201 94.6648 220.283 94.7878 220.283C94.9518 220.283 95.1568 219.996 95.3208 219.422C95.4028 219.545 95.5668 219.586 95.7718 219.586C95.8948 219.586 96.0588 219.545 96.1408 219.422L96.7968 218.438L97.5348 218.684H97.5758C97.6578 218.684 97.7808 218.561 97.9858 218.438C98.1908 218.315 98.3548 218.233 98.4778 218.233L98.6008 218.274C99.2568 218.602 99.7078 219.176 99.9128 220.078C100.405 222.169 100.856 223.194 101.389 223.194C101.84 223.194 102.455 222.661 103.111 221.636C103.767 220.611 104.423 219.217 105.161 217.536C105.202 217.864 105.243 218.028 105.325 218.028C105.571 218.028 106.186 216.593 107.703 214.174C109.958 210.525 115.534 203.514 116.969 202.53C118.035 201.792 118.855 201.095 119.429 200.48C119.347 200.89 119.265 201.177 119.265 201.3C119.265 201.423 119.347 201.464 119.429 201.464L120.577 200.89V201.054C120.577 201.259 120.618 201.382 120.741 201.382C120.905 201.382 121.561 200.726 121.643 200.48L121.561 201.054L122.955 200.234L122.627 200.972C123.037 200.685 123.365 200.521 123.57 200.521C123.775 200.521 123.898 200.849 123.898 201.054C123.898 201.382 123.611 201.833 123.16 202.407C122.668 203.063 121.438 204.334 117.748 208.557C116.149 210.361 109.056 219.996 107.703 222.292L105.161 226.597C104.054 228.442 103.357 229.631 102.988 230.082C102.619 230.533 102.168 230.984 101.635 231.394L101.266 231.189L100.938 231.394L100.569 231.804Z" fill="black"/>
<rect width="191" height="62" rx="31" fill="#F5CBCC"/>
<rect x="1.5" y="1.5" width="188" height="59" rx="29.5" stroke="black" stroke-opacity="0.1" stroke-width="3"/>
<path d="M71.3691 21.45C71.2734 20.958 71.2119 20.4796 71.1846 20.015C71.1572 19.5366 71.1436 19.113 71.1436 18.744C71.1436 18.3613 71.1572 17.9308 71.1846 17.4525C71.2119 16.9741 71.2734 16.489 71.3691 15.997H91.6641C91.7597 16.3386 91.8349 16.7418 91.8896 17.2065C91.9579 17.6575 91.9921 18.0948 91.9921 18.5185C91.9921 19.5845 91.7119 20.343 91.1516 20.794C90.6049 21.2313 89.7439 21.45 88.5686 21.45H87.3591C87.0584 21.45 86.6279 21.4431 86.0676 21.4295C85.5072 21.4158 85.0767 21.409 84.7761 21.409H78.1956C77.8949 21.409 77.4644 21.4158 76.9041 21.4295C76.3437 21.4431 75.9132 21.45 75.6126 21.45H71.3691ZM78.1956 24.443C78.1956 23.8826 78.2024 23.3838 78.2161 22.9465C78.2297 22.4955 78.2366 21.983 78.2366 21.409V18.703H84.7351V21.409C84.7351 21.983 84.7419 22.4955 84.7556 22.9465C84.7692 23.3838 84.7761 23.8826 84.7761 24.443V44C84.2157 44.0956 83.6417 44.1571 83.0541 44.1845C82.4664 44.2255 81.9471 44.246 81.4961 44.246C81.0314 44.246 80.5052 44.2255 79.9176 44.1845C79.3299 44.1571 78.7559 44.0956 78.1956 44V24.443Z" fill="black"/>
<path d="M108.549 33.7705C108.549 35.9571 108.187 37.8636 107.463 39.49C106.738 41.1163 105.672 42.3805 104.265 43.2825C102.857 44.1708 101.128 44.615 99.078 44.615C97.0007 44.615 95.2582 44.164 93.8505 43.262C92.4428 42.36 91.3837 41.0958 90.673 39.4695C89.9623 37.8431 89.607 35.9435 89.607 33.7705C89.607 31.5701 89.9623 29.6636 90.673 28.051C91.3973 26.4246 92.4633 25.1673 93.871 24.279C95.2787 23.377 97.0143 22.926 99.078 22.926C101.155 22.926 102.891 23.377 104.285 24.279C105.693 25.181 106.752 26.4451 107.463 28.0715C108.187 29.6841 108.549 31.5838 108.549 33.7705ZM96.1875 33.7705C96.1875 34.8911 96.249 35.9093 96.372 36.825C96.5087 37.7406 96.782 38.4718 97.192 39.0185C97.602 39.5515 98.2307 39.818 99.078 39.818C99.9117 39.818 100.534 39.5515 100.944 39.0185C101.367 38.4718 101.641 37.7406 101.764 36.825C101.9 35.9093 101.969 34.8911 101.969 33.7705C101.969 32.6361 101.9 31.6111 101.764 30.6955C101.641 29.7798 101.367 29.0555 100.944 28.5225C100.534 27.9758 99.9117 27.7025 99.078 27.7025C98.2307 27.7025 97.602 27.9758 97.192 28.5225C96.782 29.0555 96.5087 29.7798 96.372 30.6955C96.249 31.6111 96.1875 32.6361 96.1875 33.7705Z" fill="black"/>
<path d="M144.657 29.978C144.657 31.577 144.541 33.1213 144.309 34.611C144.09 36.087 143.653 37.4673 142.997 38.752C142.341 40.0366 141.357 41.1846 140.045 42.196C139.416 42.688 138.658 43.0843 137.769 43.385C136.895 43.6856 135.993 43.9043 135.063 44.041C134.134 44.1776 133.287 44.246 132.521 44.246C131.346 44.246 130.191 44.2323 129.057 44.205C127.936 44.1913 126.809 44.1708 125.674 44.1435C124.554 44.1298 123.399 44.1093 122.21 44.082L121.923 43.795V16.202L122.21 15.915C123.385 15.874 124.533 15.8466 125.654 15.833C126.788 15.8056 127.922 15.7851 129.057 15.7715C130.191 15.7578 131.346 15.751 132.521 15.751C133.287 15.751 134.134 15.8261 135.063 15.9765C135.993 16.1131 136.901 16.3318 137.79 16.6325C138.678 16.9331 139.43 17.3295 140.045 17.8215C141.343 18.8328 142.32 19.9808 142.976 21.2655C143.632 22.5365 144.076 23.91 144.309 25.386C144.541 26.862 144.657 28.3926 144.657 29.978ZM137.913 29.978C137.913 28.9393 137.844 27.887 137.708 26.821C137.585 25.7413 137.339 24.7573 136.97 23.869C136.614 22.967 136.075 22.2426 135.35 21.696C134.64 21.1356 133.697 20.8555 132.521 20.8555C131.824 20.8555 131.155 20.8555 130.512 20.8555C129.87 20.8555 129.187 20.8418 128.462 20.8145V39.162C129.187 39.1483 129.87 39.1415 130.512 39.1415C131.155 39.1415 131.824 39.1415 132.521 39.1415C133.697 39.1415 134.64 38.8681 135.35 38.3215C136.075 37.7611 136.614 37.03 136.97 36.128C137.339 35.2123 137.585 34.2215 137.708 33.1555C137.844 32.0758 137.913 31.0166 137.913 29.978Z" fill="black"/>
<path d="M166.365 33.7705C166.365 35.9571 166.003 37.8636 165.279 39.49C164.555 41.1163 163.489 42.3805 162.081 43.2825C160.673 44.1708 158.944 44.615 156.894 44.615C154.817 44.615 153.075 44.164 151.667 43.262C150.259 42.36 149.2 41.0958 148.489 39.4695C147.779 37.8431 147.423 35.9435 147.423 33.7705C147.423 31.5701 147.779 29.6636 148.489 28.051C149.214 26.4246 150.28 25.1673 151.687 24.279C153.095 23.377 154.831 22.926 156.894 22.926C158.972 22.926 160.707 23.377 162.101 24.279C163.509 25.181 164.568 26.4451 165.279 28.0715C166.003 29.6841 166.365 31.5838 166.365 33.7705ZM154.004 33.7705C154.004 34.8911 154.065 35.9093 154.188 36.825C154.325 37.7406 154.598 38.4718 155.008 39.0185C155.418 39.5515 156.047 39.818 156.894 39.818C157.728 39.818 158.35 39.5515 158.76 39.0185C159.184 38.4718 159.457 37.7406 159.58 36.825C159.717 35.9093 159.785 34.8911 159.785 33.7705C159.785 32.6361 159.717 31.6111 159.58 30.6955C159.457 29.7798 159.184 29.0555 158.76 28.5225C158.35 27.9758 157.728 27.7025 156.894 27.7025C156.047 27.7025 155.418 27.9758 155.008 28.5225C154.598 29.0555 154.325 29.7798 154.188 30.6955C154.065 31.6111 154.004 32.6361 154.004 33.7705Z" fill="black"/>
<path fill-rule="evenodd" clip-rule="evenodd" d="M25 21V41H45V21H25ZM23 14C20.2386 14 18 16.2386 18 19V43C18 45.7614 20.2386 48 23 48H47C49.7614 48 52 45.7614 52 43V19C52 16.2386 49.7614 14 47 14H23Z" fill="black"/>
<rect x="32" y="97" width="191" height="62" rx="31" fill="#F7EC82"/>
<rect x="33.5" y="98.5" width="188" height="59" rx="29.5" stroke="black" stroke-opacity="0.1" stroke-width="3"/>
<path d="M128.851 126.978C128.851 128.577 128.735 130.121 128.502 131.611C128.284 133.087 127.846 134.467 127.19 135.752C126.534 137.037 125.55 138.185 124.238 139.196C123.61 139.688 122.851 140.084 121.963 140.385C121.088 140.686 120.186 140.904 119.257 141.041C118.327 141.178 117.48 141.246 116.715 141.246C115.539 141.246 114.385 141.232 113.25 141.205C112.13 141.191 111.002 141.171 109.868 141.143C108.747 141.13 107.592 141.109 106.403 141.082L106.116 140.795V113.202L106.403 112.915C107.579 112.874 108.727 112.847 109.847 112.833C110.982 112.806 112.116 112.785 113.25 112.771C114.385 112.758 115.539 112.751 116.715 112.751C117.48 112.751 118.327 112.826 119.257 112.976C120.186 113.113 121.095 113.332 121.983 113.632C122.872 113.933 123.623 114.329 124.238 114.821C125.537 115.833 126.514 116.981 127.17 118.265C127.826 119.536 128.27 120.91 128.502 122.386C128.735 123.862 128.851 125.393 128.851 126.978ZM122.106 126.978C122.106 125.939 122.038 124.887 121.901 123.821C121.778 122.741 121.532 121.757 121.163 120.869C120.808 119.967 120.268 119.243 119.544 118.696C118.833 118.136 117.89 117.855 116.715 117.855C116.018 117.855 115.348 117.855 114.706 117.855C114.063 117.855 113.38 117.842 112.656 117.814V136.162C113.38 136.148 114.063 136.141 114.706 136.141C115.348 136.141 116.018 136.141 116.715 136.141C117.89 136.141 118.833 135.868 119.544 135.321C120.268 134.761 120.808 134.03 121.163 133.128C121.532 132.212 121.778 131.221 121.901 130.155C122.038 129.076 122.106 128.017 122.106 126.978Z" fill="black"/>
<path d="M150.559 130.77C150.559 132.957 150.197 134.864 149.472 136.49C148.748 138.116 147.682 139.38 146.274 140.282C144.867 141.171 143.138 141.615 141.088 141.615C139.011 141.615 137.268 141.164 135.86 140.262C134.453 139.36 133.394 138.096 132.683 136.469C131.972 134.843 131.617 132.943 131.617 130.77C131.617 128.57 131.972 126.664 132.683 125.051C133.407 123.425 134.473 122.167 135.881 121.279C137.289 120.377 139.024 119.926 141.088 119.926C143.165 119.926 144.901 120.377 146.295 121.279C147.703 122.181 148.762 123.445 149.472 125.071C150.197 126.684 150.559 128.584 150.559 130.77ZM138.197 130.77C138.197 131.891 138.259 132.909 138.382 133.825C138.519 134.741 138.792 135.472 139.202 136.018C139.612 136.551 140.241 136.818 141.088 136.818C141.922 136.818 142.543 136.551 142.953 136.018C143.377 135.472 143.65 134.741 143.773 133.825C143.91 132.909 143.978 131.891 143.978 130.77C143.978 129.636 143.91 128.611 143.773 127.695C143.65 126.78 143.377 126.055 142.953 125.522C142.543 124.976 141.922 124.702 141.088 124.702C140.241 124.702 139.612 124.976 139.202 125.522C138.792 126.055 138.519 126.78 138.382 127.695C138.259 128.611 138.197 129.636 138.197 130.77Z" fill="black"/>
<path d="M161.627 141C161.176 141.082 160.664 141.143 160.09 141.184C159.529 141.225 158.976 141.246 158.429 141.246C157.896 141.246 157.343 141.225 156.769 141.184C156.208 141.143 155.689 141.082 155.211 141V127.429C155.211 126.746 155.067 126.178 154.78 125.727C154.507 125.276 154.008 125.051 153.284 125.051H152.669C152.491 124.381 152.402 123.657 152.402 122.878C152.402 122.523 152.423 122.147 152.464 121.75C152.505 121.34 152.573 120.951 152.669 120.582C153.297 120.514 153.94 120.466 154.596 120.438C155.265 120.397 155.826 120.377 156.277 120.377H157.158C158.525 120.377 159.611 120.821 160.418 121.709C161.224 122.584 161.627 123.773 161.627 125.276V141ZM153.981 114.78C153.981 113.933 154.138 113.134 154.452 112.382C154.808 112.204 155.265 112.054 155.826 111.931C156.4 111.808 156.96 111.746 157.507 111.746C158.053 111.746 158.621 111.808 159.208 111.931C159.796 112.054 160.247 112.204 160.561 112.382C160.712 112.765 160.828 113.168 160.91 113.591C160.992 114.015 161.033 114.411 161.033 114.78C161.033 115.614 160.876 116.407 160.561 117.158C160.247 117.336 159.796 117.486 159.208 117.609C158.621 117.732 158.053 117.794 157.507 117.794C156.96 117.794 156.393 117.739 155.805 117.63C155.231 117.507 154.78 117.35 154.452 117.158C154.138 116.407 153.981 115.614 153.981 114.78Z" fill="black"/>
<path d="M169.165 120.254C170.395 120.254 171.318 120.671 171.933 121.504C172.561 122.338 172.876 123.472 172.876 124.907V141C172.425 141.082 171.912 141.143 171.338 141.184C170.778 141.225 170.224 141.246 169.678 141.246C169.145 141.246 168.591 141.225 168.017 141.184C167.443 141.143 166.924 141.082 166.459 141V120.541L166.746 120.254H169.165ZM184.089 135.875C184.089 136.681 184.164 137.433 184.315 138.13C184.465 138.813 184.732 139.421 185.114 139.954C184.636 140.351 184.048 140.679 183.351 140.938C182.654 141.198 181.909 141.328 181.117 141.328C179.832 141.328 178.937 140.986 178.431 140.303C177.926 139.62 177.673 138.636 177.673 137.351V128.638C177.673 127.709 177.55 127.026 177.304 126.588C177.071 126.137 176.614 125.912 175.93 125.912C175.507 125.912 175.015 126.028 174.454 126.26C173.894 126.493 173.34 126.869 172.794 127.388C172.247 127.894 171.762 128.577 171.338 129.438V123.821C172.295 122.892 173.334 122.051 174.454 121.299C175.589 120.548 176.887 120.172 178.349 120.172C179.593 120.172 180.638 120.486 181.486 121.115C182.347 121.73 182.996 122.584 183.433 123.677C183.871 124.771 184.089 126.035 184.089 127.47V135.875Z" fill="black"/>
<path d="M207.188 123.493C206.846 123.739 206.566 124.135 206.347 124.682C206.142 125.215 206.04 125.803 206.04 126.445V137.269C206.04 139.182 205.951 140.761 205.773 142.004C205.609 143.248 205.37 144.266 205.056 145.059C204.741 145.852 204.365 146.521 203.928 147.068C203.122 148.093 202.049 148.845 200.71 149.323C199.37 149.815 197.881 150.061 196.241 150.061C194.956 150.061 193.617 149.931 192.223 149.671C190.829 149.425 189.599 149.104 188.533 148.708C188.533 147.956 188.683 147.129 188.984 146.227C189.284 145.325 189.66 144.608 190.111 144.075C190.986 144.458 191.901 144.758 192.858 144.977C193.815 145.196 194.744 145.305 195.646 145.305C196.644 145.305 197.443 145.134 198.045 144.792C198.66 144.451 199.104 143.966 199.377 143.337C199.65 142.722 199.787 141.991 199.787 141.143V126.363C199.787 124.668 200.245 123.226 201.161 122.037C202.076 120.848 203.436 120.24 205.24 120.213C205.636 120.527 206.04 121.012 206.45 121.668C206.86 122.311 207.106 122.919 207.188 123.493ZM187.754 130.811C187.754 128.461 188.123 126.479 188.861 124.866C189.612 123.24 190.61 122.01 191.854 121.176C193.111 120.343 194.484 119.926 195.974 119.926C197.3 119.926 198.434 120.145 199.377 120.582C200.32 121.019 201.099 121.559 201.714 122.201C202.329 122.83 202.814 123.438 203.17 124.026L202.124 129.253C201.331 127.777 200.477 126.65 199.562 125.871C198.66 125.078 197.84 124.682 197.102 124.682C196.432 124.682 195.892 124.935 195.482 125.44C195.072 125.932 194.771 126.643 194.58 127.572C194.402 128.488 194.314 129.581 194.314 130.852C194.314 132.752 194.539 134.132 194.99 134.993C195.455 135.841 196.036 136.264 196.733 136.264C197.553 136.264 198.352 135.984 199.131 135.424C199.924 134.864 200.587 134.03 201.12 132.923L202.022 137.371C201.571 138.15 200.99 138.847 200.279 139.462C199.568 140.064 198.769 140.542 197.881 140.897C197.006 141.239 196.09 141.41 195.134 141.41C193.466 141.41 192.086 140.959 190.993 140.057C189.899 139.155 189.086 137.911 188.553 136.326C188.02 134.727 187.754 132.889 187.754 130.811Z" fill="black"/>
<path fill-rule="evenodd" clip-rule="evenodd" d="M57 118V138H77V118H57ZM55 111C52.2386 111 50 113.239 50 116V140C50 142.761 52.2386 145 55 145H79C81.7614 145 84 142.761 84 140V116C84 113.239 81.7614 111 79 111H55Z" fill="black"/>
</g>
<defs>
<clipPath id="clip0_4036_15833">
<rect width="256" height="256" fill="white"/>
</clipPath>
</defs>
</svg>
